<svg width="235" height="235" viewBox="0 0 235 235" fill="none" xmlns="http://www.w3.org/2000/svg">
<path d="M58.75 186.042C58.75 196.813 67.5625 205.625 78.3333 205.625H156.667C167.437 205.625 176.25 196.813 176.25 186.042V88.125C176.25 77.3542 167.437 68.5417 156.667 68.5417H78.3333C67.5625 68.5417 58.75 77.3542 58.75 88.125V186.042ZM176.25 39.1667H151.771L144.819 32.2146C143.056 30.4521 140.51 29.375 137.965 29.375H97.0354C94.4896 29.375 91.9437 30.4521 90.1812 32.2146L83.2292 39.1667H58.75C53.3646 39.1667 48.9583 43.5729 48.9583 48.9583C48.9583 54.3438 53.3646 58.75 58.75 58.75H176.25C181.635 58.75 186.042 54.3438 186.042 48.9583C186.042 43.5729 181.635 39.1667 176.25 39.1667Z" fill="white"/>
</svg>
