<svg width="141" height="83" viewBox="0 0 141 83" fill="none" xmlns="http://www.w3.org/2000/svg">
<path d="M31.976 29.08C32.0613 30.1893 31.9973 31.6613 31.784 33.496C31.6133 35.288 31.272 37.208 30.76 39.256C30.2907 41.304 29.608 43.2453 28.712 45.08C27.7733 47.0853 26.664 48.728 25.384 50.008C24.104 51.288 22.8027 52.312 21.48 53.08C20.1573 53.8053 18.9413 54.3813 17.832 54.808C16.7653 55.2347 15.912 55.576 15.272 55.832C14.632 56.1307 13.864 56.28 12.968 56.28C12.1573 56.28 11.3893 56.152 10.664 55.896C9.93867 55.64 9.36267 55.3413 8.936 55C8.63733 54.744 8.21067 54.488 7.656 54.232C7.10133 53.9333 6.52533 53.5067 5.928 52.952C5.33067 52.3973 4.81867 51.608 4.392 50.584C3.96533 49.5173 3.73067 48.088 3.688 46.296C3.64533 45.4427 3.64533 44.6107 3.688 43.8C3.77333 42.9893 3.83733 42.2 3.88 41.432C2.94133 40.408 2.152 39.2987 1.512 38.104C0.914667 36.8667 0.616 35.6507 0.616 34.456C0.616 33.4747 0.829333 32.5787 1.256 31.768C2.664 29.1227 4.54133 26.904 6.888 25.112C9.23467 23.2773 11.5387 21.8907 13.8 20.952C14.952 19.672 16.1467 18.4773 17.384 17.368C18.664 16.2587 19.944 15.256 21.224 14.36C22.0773 13.976 22.6747 13.784 23.016 13.784C23.528 13.784 23.784 13.9973 23.784 14.424C23.784 15.0213 23.4427 15.512 22.76 15.896C21.7787 16.408 20.8613 16.9627 20.008 17.56C19.1547 18.1573 18.3227 18.7973 17.512 19.48C18.3227 19.2667 19.0053 19.1173 19.56 19.032C20.1573 18.904 20.6053 18.84 20.904 18.84C22.9093 18.84 24.7227 19.352 26.344 20.376C28.008 21.3573 29.3307 22.6373 30.312 24.216C31.336 25.752 31.8907 27.3733 31.976 29.08ZM28.072 29.976C28.072 27.288 27.6027 25.2613 26.664 23.896C25.768 22.5307 24.6373 21.6347 23.272 21.208C21.9493 20.7387 20.6053 20.504 19.24 20.504C18.8987 20.504 18.5573 20.504 18.216 20.504C17.9173 20.504 17.6187 20.5253 17.32 20.568C17.1493 20.568 16.9787 20.5893 16.808 20.632C16.6373 20.632 16.4453 20.6747 16.232 20.76C14.3973 22.5947 12.84 24.6427 11.56 26.904C10.3227 29.1227 9.32 31.384 8.552 33.688C7.82667 35.992 7.272 38.2107 6.888 40.344C7.912 40.8987 9.04267 41.3253 10.28 41.624C11.5173 41.9227 12.7333 42.072 13.928 42.072C15.4213 42.072 16.744 41.88 17.896 41.496C19.048 41.0693 19.7733 40.4507 20.072 39.64C20.328 38.9147 20.456 38.3173 20.456 37.848C20.456 37.1227 20.2213 36.632 19.752 36.376C19.3253 36.12 18.792 36.0133 18.152 36.056C17.2987 36.0987 16.7013 36.056 16.36 35.928C16.0187 35.7573 15.848 35.544 15.848 35.288C15.848 35.16 15.8907 35.032 15.976 34.904C16.0613 34.776 16.1467 34.648 16.232 34.52C16.744 34.008 17.32 33.752 17.96 33.752C18.856 33.752 19.8373 34.2853 20.904 35.352C21.8427 36.7173 22.312 37.9547 22.312 39.064C22.312 40.1307 21.9493 41.0267 21.224 41.752C20.4987 42.4773 19.5813 43.0747 18.472 43.544C17.4053 44.0133 16.296 44.376 15.144 44.632C13.992 44.8453 12.968 44.9947 12.072 45.08C11.176 45.1227 10.5787 45.1227 10.28 45.08C9.04267 44.824 7.76267 44.3333 6.44 43.608C6.44 43.992 6.41867 44.376 6.376 44.76C6.376 45.144 6.376 45.5493 6.376 45.976C6.376 47.64 6.58933 49.0053 7.016 50.072C7.44267 51.1387 7.95467 51.9707 8.552 52.568C9.192 53.1653 9.768 53.592 10.28 53.848C10.5787 53.976 10.92 54.0827 11.304 54.168C11.7307 54.2533 12.2 54.296 12.712 54.296C13.8213 54.296 15.08 54.0613 16.488 53.592C17.896 53.08 19.3467 52.184 20.84 50.904C22.376 49.624 23.8267 47.8107 25.192 45.464C25.7893 44.4827 26.2587 43.288 26.6 41.88C26.984 40.4293 27.2827 38.9573 27.496 37.464C27.7093 35.928 27.8587 34.4987 27.944 33.176C28.0293 31.8533 28.072 30.7867 28.072 29.976ZM11.944 23.128C10.6213 24.1093 9.36267 25.24 8.168 26.52C7.016 27.7573 6.03467 28.9947 5.224 30.232C4.41333 31.4267 3.90133 32.472 3.688 33.368C3.51733 33.9227 3.432 34.5413 3.432 35.224C3.432 36.3333 3.752 37.3147 4.392 38.168C5.032 35.2667 6.01333 32.5573 7.336 30.04C8.65867 27.5227 10.1947 25.2187 11.944 23.128ZM60.5695 53.784C59.6735 54.3813 58.8202 54.68 58.0095 54.68C56.8148 54.68 55.7695 54.1253 54.8735 53.016C53.9775 51.864 53.0602 50.5413 52.1215 49.048C52.0362 48.92 51.9508 48.8133 51.8655 48.728C51.8228 48.6 51.7588 48.472 51.6735 48.344C51.1615 49.0267 50.6922 49.7093 50.2655 50.392C49.8388 51.032 49.4548 51.5653 49.1135 51.992C48.3882 52.9733 47.5348 53.6987 46.5535 54.168C45.5722 54.6373 44.6122 54.872 43.6735 54.872C42.7348 54.872 41.9242 54.6587 41.2415 54.232C40.5588 53.7627 40.2175 53.144 40.2175 52.376C40.2175 51.9067 40.4308 51.672 40.8575 51.672C41.0708 51.672 41.3482 51.7787 41.6895 51.992C42.0308 52.2053 42.4148 52.5893 42.8415 53.144C43.0548 53.3573 43.2895 53.464 43.5455 53.464C44.1428 53.464 44.8895 53.1013 45.7855 52.376C46.6815 51.6507 47.4068 50.904 47.9615 50.136C48.3028 49.6667 48.7295 49.0693 49.2415 48.344C49.7535 47.6187 50.2868 46.8507 50.8415 46.04C50.4575 44.6747 50.2015 43.3733 50.0735 42.136C49.9455 40.856 49.7748 39.7893 49.5615 38.936C49.1775 37.3147 48.1322 36.376 46.4255 36.12C45.9988 36.0347 45.6362 35.9067 45.3375 35.736C45.0388 35.5653 44.7402 35.48 44.4415 35.48C44.1855 35.48 43.9508 35.5867 43.7375 35.8C43.3962 36.1413 43.0975 36.568 42.8415 37.08C42.5855 37.5493 42.5215 38.0187 42.6495 38.488C42.7775 38.8293 42.9482 39.3413 43.1615 40.024C43.3748 40.7067 43.6522 41.048 43.9935 41.048C44.4628 41.1333 44.9535 41.0267 45.4655 40.728C46.0202 40.3867 46.5108 40.1307 46.9375 39.96C47.2788 39.832 47.5562 39.768 47.7695 39.768C48.2815 39.768 48.5375 39.96 48.5375 40.344C48.5375 40.8133 48.2175 41.1547 47.5775 41.368C46.9375 41.5813 46.3828 41.88 45.9135 42.264C45.4442 42.6053 44.8682 42.7333 44.1855 42.648C43.1188 42.4773 42.2655 41.9867 41.6255 41.176C41.0282 40.3227 40.7295 39.2987 40.7295 38.104C40.7295 36.7387 41.2842 35.5013 42.3935 34.392C42.9482 33.8373 43.4815 33.4533 43.9935 33.24C44.5482 33.0267 45.1455 32.92 45.7855 32.92C45.9988 32.92 46.2335 32.9413 46.4895 32.984C46.7455 32.984 47.0015 33.0053 47.2575 33.048C48.4948 33.2613 49.4762 33.6453 50.2015 34.2C50.9268 34.7547 51.5028 35.608 51.9295 36.76C52.1855 37.4 52.3775 38.2747 52.5055 39.384C52.6762 40.4507 52.8895 41.5813 53.1455 42.776C53.5295 42.2213 53.8922 41.752 54.2335 41.368C54.5748 40.9413 54.8522 40.6 55.0655 40.344C56.2602 38.936 57.0282 37.8693 57.3695 37.144C57.7535 36.4187 57.9882 35.7787 58.0735 35.224C58.1588 34.6693 58.3508 34.2427 58.6495 33.944C58.9908 33.6027 59.2682 33.432 59.4815 33.432C59.8228 33.432 59.9935 33.624 59.9935 34.008C59.9935 34.5627 59.7375 35.5653 59.2255 37.016C58.7135 38.4667 57.6682 40.1307 56.0895 42.008C55.4922 42.776 54.7242 43.8853 53.7855 45.336C53.9562 46.2747 54.2975 47.1707 54.8095 48.024C55.5348 49.2187 56.1748 50.328 56.7295 51.352C57.3268 52.376 58.0308 52.888 58.8415 52.888C59.3962 52.888 59.9295 52.696 60.4415 52.312C60.9108 51.9707 61.3162 51.8 61.6575 51.8C61.9562 51.8 62.1055 51.9067 62.1055 52.12C62.1055 52.2907 61.9988 52.5253 61.7855 52.824C61.5722 53.08 61.1668 53.4 60.5695 53.784ZM90.684 50.968C89.5747 52.2907 88.6147 53.208 87.804 53.72C86.9933 54.232 86.2893 54.488 85.692 54.488C84.924 54.488 84.2627 54.1893 83.708 53.592C83.196 52.952 82.748 52.2693 82.364 51.544C82.0227 50.8187 81.7453 50.3067 81.532 50.008C80.7213 50.7333 79.7613 51.5013 78.652 52.312C77.5427 53.08 76.6253 53.464 75.9 53.464C74.5347 53.464 73.468 53.1227 72.7 52.44C71.932 51.7147 71.548 50.6693 71.548 49.304C71.548 47.896 71.7187 46.232 72.06 44.312C72.444 42.392 72.9133 40.4933 73.468 38.616C74.0227 36.696 74.556 35.096 75.068 33.816C75.196 33.432 75.452 33.112 75.836 32.856C76.2627 32.6 76.6893 32.472 77.116 32.472C77.628 32.472 77.9693 32.6 78.14 32.856C78.3107 33.112 78.396 33.4107 78.396 33.752C78.396 34.1787 78.3107 34.6053 78.14 35.032C78.012 35.416 77.948 35.608 77.948 35.608C77.436 37.0587 76.8387 38.5733 76.156 40.152C75.516 41.7307 74.9187 43.5227 74.364 45.528C74.3213 45.784 74.2573 46.1467 74.172 46.616C74.1293 47.0853 74.108 47.576 74.108 48.088C74.108 48.8133 74.1933 49.496 74.364 50.136C74.5773 50.7333 74.9613 51.032 75.516 51.032C75.9853 51.032 76.604 50.7547 77.372 50.2C78.1827 49.6453 78.9933 48.8773 79.804 47.896C80.6147 46.9147 81.2547 45.784 81.724 44.504C82.1507 43.352 82.5347 42.0933 82.876 40.728C83.2173 39.3627 83.516 38.0827 83.772 36.888C84.0707 35.6507 84.348 34.6907 84.604 34.008C84.732 33.7093 84.924 33.56 85.18 33.56C85.5213 33.56 85.82 33.688 86.076 33.944C86.3747 34.2 86.4813 34.4347 86.396 34.648C86.2253 35.0747 85.9907 35.7787 85.692 36.76C85.3933 37.7413 85.0947 38.8293 84.796 40.024C84.4973 41.2187 84.22 42.392 83.964 43.544C83.708 44.6533 83.4947 45.592 83.324 46.36C83.1533 47.128 83.068 47.5547 83.068 47.64C83.068 48.28 83.132 48.856 83.26 49.368C83.388 49.88 83.6013 50.4347 83.9 51.032C84.1133 51.3733 84.3693 51.7573 84.668 52.184C85.0093 52.568 85.3507 52.76 85.692 52.76C86.5027 52.76 87.2707 52.4827 87.996 51.928C88.764 51.3307 89.34 50.7547 89.724 50.2C90.0227 49.7307 90.3 49.496 90.556 49.496C90.812 49.496 90.94 49.7307 90.94 50.2C90.94 50.5413 90.8547 50.7973 90.684 50.968ZM113.155 50.648C112.6 51.2027 112.11 51.7573 111.683 52.312C111.256 52.8667 110.318 53.5067 108.867 54.232C108.696 54.488 108.312 54.872 107.715 55.384C107.16 55.896 106.051 56.1947 104.387 56.28C103.278 56.3227 102.382 56.0453 101.699 55.448C101.059 54.8933 100.568 54.2107 100.227 53.4C99.8857 52.5893 99.587 51.8427 99.331 51.16C99.2883 51.2027 99.0963 51.3733 98.755 51.672C98.4137 51.9707 98.0723 52.2693 97.731 52.568C97.347 52.8667 97.1123 53.0587 97.027 53.144C96.9843 53.1867 96.899 53.208 96.771 53.208C96.5577 53.208 96.387 53.1013 96.259 52.888C96.0883 52.632 96.0883 52.4187 96.259 52.248C97.0697 51.4373 97.6883 50.8187 98.115 50.392C98.5417 49.9227 98.9257 49.4747 99.267 49.048C99.6083 48.6213 100.014 48.088 100.483 47.448C101.208 46.3387 101.976 45.3573 102.787 44.504C103.64 43.608 104.174 42.9467 104.387 42.52C104.43 42.4773 104.451 42.392 104.451 42.264C104.451 42.136 104.387 42.0293 104.259 41.944C104.174 41.8587 104.11 41.752 104.067 41.624C103.896 40.9413 103.811 40.3013 103.811 39.704C103.811 38.7653 104.174 37.656 104.899 36.376C105.198 36.1627 105.603 35.992 106.115 35.864C106.627 35.6933 107.032 35.672 107.331 35.8C107.672 35.9707 107.886 36.1627 107.971 36.376C108.099 36.5893 108.206 36.8667 108.291 37.208C108.291 37.2507 108.291 37.2933 108.291 37.336C108.334 37.3787 108.355 37.4427 108.355 37.528C108.355 37.784 108.312 38.0613 108.227 38.36C108.142 38.6587 108.035 38.9787 107.907 39.32C107.907 39.4907 107.694 39.8107 107.267 40.28C106.883 40.7493 106.755 41.048 106.883 41.176C107.139 41.7307 107.566 42.456 108.163 43.352C108.888 44.376 109.379 45.3147 109.635 46.168C109.934 47.0213 110.083 47.7893 110.083 48.472C110.083 49.2827 109.955 49.9867 109.699 50.584C109.486 51.1813 109.315 51.6933 109.187 52.12C109.571 52.1627 110.019 51.9707 110.531 51.544C111.043 51.0747 111.534 50.5627 112.003 50.008C112.515 49.4107 112.899 48.984 113.155 48.728C113.411 48.472 113.603 48.344 113.731 48.344C113.944 48.344 113.944 48.664 113.731 49.304C113.56 49.944 113.368 50.392 113.155 50.648ZM106.947 38.36C106.947 38.1893 106.926 37.9973 106.883 37.784C106.84 37.5707 106.712 37.4427 106.499 37.4H106.435C106.222 37.4 106.051 37.5067 105.923 37.72C105.795 37.8907 105.688 38.0613 105.603 38.232C105.475 38.5733 105.347 38.872 105.219 39.128C105.134 39.3413 105.176 39.5547 105.347 39.768C105.518 39.8533 105.816 39.6827 106.243 39.256C106.712 38.7867 106.947 38.488 106.947 38.36ZM107.075 48.6C107.075 47.96 106.947 47.2773 106.691 46.552C106.478 45.784 106.222 45.1013 105.923 44.504C105.667 43.9067 105.475 43.5227 105.347 43.352C105.347 43.352 105.091 43.672 104.579 44.312C104.067 44.9093 103.512 45.5707 102.915 46.296C102.531 46.7227 102.147 47.2773 101.763 47.96C101.379 48.6427 101.144 49.24 101.059 49.752C101.059 49.752 101.251 50.008 101.635 50.52C102.019 50.9893 102.488 51.4373 103.043 51.864C103.64 52.2907 104.216 52.44 104.771 52.312C105.624 52.0987 106.222 51.608 106.563 50.84C106.904 50.0293 107.075 49.2827 107.075 48.6ZM104.899 53.592H104.323C104.152 53.592 103.96 53.592 103.747 53.592C103.534 53.5493 103.32 53.5067 103.107 53.464C102.894 53.3787 102.574 53.208 102.147 52.952C101.72 52.696 101.507 52.568 101.507 52.568C101.507 52.568 101.486 52.6107 101.443 52.696C101.443 52.7813 101.443 52.888 101.443 53.016C101.443 53.1867 101.464 53.3787 101.507 53.592C101.592 53.8053 101.742 54.0187 101.955 54.232C102.296 54.488 102.595 54.7013 102.851 54.872C103.107 55 103.448 55 103.875 54.872C104.174 54.7867 104.408 54.552 104.579 54.168C104.792 53.784 104.899 53.592 104.899 53.592Z" fill="#EB0A2F"/>
<path d="M21 67.644C20.744 67.9 20.3493 68.2627 19.816 68.732C19.304 69.18 18.76 69.6067 18.184 70.012C17.6293 70.4173 17.16 70.6733 16.776 70.78C16.328 70.908 15.9227 71.0467 15.56 71.196C15.1973 71.3453 14.8027 71.4733 14.376 71.58C13.9493 71.708 13.416 71.772 12.776 71.772C11.88 71.772 10.92 71.612 9.896 71.292C8.872 70.9933 7.912 70.62 7.016 70.172C6.12 69.7453 5.39467 69.3293 4.84 68.924C3.73067 68.092 2.87733 66.972 2.28 65.564C1.704 64.1347 1.416 62.46 1.416 60.54C1.416 60.0067 1.46933 59.4307 1.576 58.812C1.68267 58.172 1.81067 57.5747 1.96 57.02C2.10933 56.444 2.25867 55.9853 2.408 55.644C2.856 54.62 3.4 53.6173 4.04 52.636C4.70133 51.6547 5.55467 50.8333 6.6 50.172C7.15467 49.8093 7.85867 49.436 8.712 49.052C9.56533 48.6467 10.6853 48.444 12.072 48.444C12.264 48.444 12.4667 48.4547 12.68 48.476C12.8933 48.476 13.1067 48.4867 13.32 48.508C14.4933 48.636 15.528 48.9987 16.424 49.596C17.3413 50.1933 18.056 50.8227 18.568 51.484C18.8027 51.7827 19.0053 52.1773 19.176 52.668C19.3467 53.1587 19.432 53.6813 19.432 54.236C19.432 54.492 19.4107 54.748 19.368 55.004C19.3467 55.26 19.2827 55.516 19.176 55.772C18.92 56.5613 18.568 57.2973 18.12 57.98C17.6933 58.6627 17.16 59.2173 16.52 59.644C15.88 60.0493 15.112 60.252 14.216 60.252C13.4267 60.252 12.8187 60.1987 12.392 60.092C11.9653 59.9853 11.6133 59.8147 11.336 59.58C11.0587 59.324 10.7387 58.9827 10.376 58.556C10.0773 58.1933 9.87467 57.788 9.768 57.34C9.66133 56.8707 9.608 56.4333 9.608 56.028C9.608 55.6227 9.608 55.3347 9.608 55.164C9.608 54.652 9.82133 54.14 10.248 53.628C10.696 53.0947 11.2187 52.6467 11.816 52.284C12.4347 51.9213 12.9787 51.74 13.448 51.74C13.8747 51.74 14.216 51.9107 14.472 52.252C14.728 52.572 14.9093 52.9347 15.016 53.34C15.144 53.7453 15.208 54.0653 15.208 54.3C15.208 54.62 15.1653 54.9827 15.08 55.388C14.9947 55.7933 14.7067 56.1773 14.216 56.54C14.1307 56.6253 14.0453 56.668 13.96 56.668C13.8107 56.668 13.736 56.5613 13.736 56.348C13.736 56.2413 13.768 56.1133 13.832 55.964C13.896 55.8147 14.0027 55.6867 14.152 55.58C14.3227 55.452 14.4293 55.3027 14.472 55.132C14.5147 54.9613 14.536 54.8013 14.536 54.652C14.536 54.524 14.5253 54.4067 14.504 54.3C14.504 54.172 14.504 54.0653 14.504 53.98C14.504 53.8093 14.408 53.5747 14.216 53.276C14.024 52.956 13.768 52.796 13.448 52.796C13.128 52.796 12.744 52.924 12.296 53.18C11.8693 53.4147 11.496 53.7133 11.176 54.076C10.856 54.4387 10.696 54.8013 10.696 55.164C10.696 55.3773 10.824 55.708 11.08 56.156C11.3573 56.604 11.6667 57.0413 12.008 57.468C12.2853 57.788 12.4773 58.044 12.584 58.236C12.712 58.428 12.8827 58.5667 13.096 58.652C13.3307 58.716 13.7573 58.748 14.376 58.748C15.4427 58.748 16.2533 58.428 16.808 57.788C17.3627 57.1267 17.8107 56.3373 18.152 55.42C18.28 54.9933 18.344 54.588 18.344 54.204C18.344 53.7773 18.28 53.3827 18.152 53.02C18.0453 52.6573 17.9067 52.3693 17.736 52.156C17.3093 51.58 16.808 51.1533 16.232 50.876C15.656 50.5773 14.8667 50.3853 13.864 50.3C13.672 50.2787 13.48 50.268 13.288 50.268C13.1173 50.2467 12.9467 50.236 12.776 50.236C11.496 50.236 10.472 50.428 9.704 50.812C8.95733 51.196 8.30667 51.548 7.752 51.868C6.792 52.444 6.024 53.18 5.448 54.076C4.872 54.972 4.37067 55.8893 3.944 56.828C3.816 57.1267 3.67733 57.5427 3.528 58.076C3.4 58.6093 3.29333 59.164 3.208 59.74C3.12267 60.316 3.08 60.8387 3.08 61.308C3.08 63.0147 3.22933 64.38 3.528 65.404C3.82667 66.428 4.47733 67.3133 5.48 68.06C6.01333 68.444 6.696 68.8387 7.528 69.244C8.36 69.6493 9.23467 69.9907 10.152 70.268C11.0907 70.5667 11.9653 70.716 12.776 70.716C13.6507 70.716 14.3333 70.5987 14.824 70.364C15.3147 70.1507 15.8587 69.948 16.456 69.756C16.8187 69.6493 17.2773 69.436 17.832 69.116C18.3867 68.796 18.92 68.4547 19.432 68.092C19.9653 67.7293 20.3493 67.4413 20.584 67.228C20.7333 67.0787 20.8827 67.004 21.032 67.004C21.16 67.004 21.224 67.068 21.224 67.196C21.224 67.3453 21.1493 67.4947 21 67.644ZM32.9948 63.484C32.9948 63.932 32.8987 64.5187 32.7067 65.244C32.5147 65.9693 32.2587 66.652 31.9387 67.292C31.6401 67.9533 31.2987 68.444 30.9148 68.764C30.5521 69.0627 30.2001 69.276 29.8587 69.404C29.5174 69.5107 29.2401 69.6173 29.0267 69.724C28.9414 69.7453 28.8454 69.7667 28.7387 69.788C28.6534 69.8307 28.5574 69.852 28.4507 69.852C28.0241 69.852 27.6934 69.7347 27.4587 69.5C27.3734 69.4147 27.2347 69.3293 27.0427 69.244C26.8721 69.1587 26.7121 69.0093 26.5627 68.796C26.4134 68.5827 26.3387 68.2307 26.3387 67.74C26.3387 67.228 26.4027 66.7373 26.5307 66.268C26.1467 65.82 25.9547 65.3293 25.9547 64.796C25.9547 64.476 26.0294 64.1667 26.1787 63.868C26.5841 63.1 27.0961 62.5027 27.7147 62.076C28.3334 61.6493 28.9201 61.3507 29.4747 61.18C30.0507 61.0093 30.4454 60.924 30.6588 60.924C31.4481 60.924 32.0347 61.18 32.4187 61.692C32.8027 62.204 32.9948 62.8013 32.9948 63.484ZM31.6827 63.644C31.6827 63.1533 31.5121 62.748 31.1708 62.428C30.8508 62.108 30.4454 61.948 29.9548 61.948C29.5494 61.948 29.1334 62.076 28.7067 62.332C28.3014 62.5667 27.9494 62.8653 27.6507 63.228C27.3521 63.5907 27.1601 63.9427 27.0747 64.284C27.0534 64.412 27.0321 64.5293 27.0107 64.636C27.0107 64.7427 27.0107 64.8493 27.0107 64.956C27.2454 64.444 27.4907 64.0173 27.7467 63.676C28.0241 63.3347 28.2267 63.1213 28.3547 63.036C28.4614 62.9507 28.6001 62.908 28.7707 62.908C29.0054 62.908 29.1227 62.972 29.1227 63.1C29.1227 63.1853 29.0054 63.3453 28.7707 63.58C28.5574 63.7933 28.3121 64.0813 28.0347 64.444C27.7574 64.7853 27.5227 65.212 27.3307 65.724C27.5014 65.9373 27.7254 66.0973 28.0027 66.204C28.3014 66.2893 28.5894 66.332 28.8667 66.332C29.1654 66.332 29.4427 66.2787 29.6988 66.172C29.9761 66.044 30.1574 65.8733 30.2427 65.66C30.2641 65.596 30.2747 65.5427 30.2747 65.5C30.2961 65.436 30.3067 65.3827 30.3067 65.34C30.3067 65.1267 30.2107 64.9987 30.0187 64.956C29.8481 64.892 29.6774 64.8707 29.5067 64.892H29.4427C29.2081 64.892 29.0907 64.8387 29.0907 64.732C29.0907 64.668 29.1121 64.604 29.1547 64.54C29.2187 64.476 29.2721 64.4227 29.3147 64.38C29.4427 64.252 29.5814 64.188 29.7308 64.188C29.9441 64.188 30.1787 64.3267 30.4348 64.604C30.6694 64.924 30.7867 65.2333 30.7867 65.532C30.7867 65.916 30.5947 66.2147 30.2108 66.428C29.8481 66.6413 29.4427 66.7907 28.9947 66.876C28.5467 66.9613 28.2054 67.004 27.9707 67.004C27.6294 67.004 27.3521 66.9293 27.1387 66.78C27.1174 66.8227 27.1067 66.9187 27.1067 67.068C27.1067 67.6653 27.2667 68.0707 27.5867 68.284C27.9067 68.476 28.1734 68.6253 28.3867 68.732C28.5147 68.7747 28.6214 68.796 28.7067 68.796C29.0054 68.796 29.3147 68.668 29.6347 68.412C29.9761 68.156 30.2747 67.804 30.5307 67.356C30.7227 67.0147 30.9041 66.6093 31.0747 66.14C31.2454 65.6707 31.3841 65.212 31.4907 64.764C31.6187 64.2947 31.6827 63.9213 31.6827 63.644ZM46.8247 66.62C46.6541 67.004 46.2807 67.4627 45.7048 67.996C45.1501 68.5293 44.4887 68.9987 43.7207 69.404C42.9741 69.788 42.2167 69.98 41.4487 69.98C40.3394 69.98 39.5927 69.66 39.2087 69.02C38.8247 68.3587 38.6327 67.4733 38.6327 66.364C38.6327 65.6173 38.6967 64.7 38.8247 63.612C38.9527 62.524 39.1447 61.3507 39.4007 60.092C39.6567 58.8333 39.9767 57.564 40.3607 56.284C40.7447 55.068 41.1607 53.884 41.6087 52.732C42.0567 51.58 42.7287 50.5773 43.6247 49.724C43.7741 49.4893 43.9661 49.372 44.2007 49.372C44.3927 49.372 44.5634 49.4573 44.7127 49.628C44.8621 49.7773 44.9261 49.9587 44.9047 50.172C44.9047 50.172 44.8941 50.4387 44.8727 50.972C44.8727 51.5053 44.8407 52.156 44.7767 52.924C44.7127 53.6707 44.6167 54.3853 44.4887 55.068C44.2967 56.22 43.9447 57.436 43.4327 58.716C42.9421 59.996 42.4194 61.1587 41.8647 62.204C41.4167 63.0787 41.0541 63.708 40.7767 64.092C40.5207 64.476 40.3181 64.7533 40.1687 64.924C40.0407 65.0947 39.9447 65.3187 39.8807 65.596C39.8594 65.7453 39.8381 65.916 39.8167 66.108C39.8167 66.2787 39.8167 66.46 39.8167 66.652C39.8167 67.036 39.8381 67.4093 39.8807 67.772C39.9447 68.1133 40.0194 68.3373 40.1047 68.444C40.3394 68.6787 40.5954 68.8493 40.8727 68.956C41.1501 69.0627 41.4274 69.116 41.7047 69.116C41.9394 69.116 42.1527 69.084 42.3447 69.02C43.0701 68.8067 43.8061 68.4547 44.5527 67.964C45.3207 67.4733 45.8647 66.9933 46.1847 66.524C46.3341 66.3107 46.4514 66.172 46.5367 66.108C46.6434 66.0227 46.7287 65.98 46.7927 65.98C46.8994 65.98 46.9528 66.0547 46.9528 66.204C46.9528 66.2467 46.9421 66.3107 46.9207 66.396C46.8994 66.46 46.8674 66.5347 46.8247 66.62ZM43.9127 51.516C43.6994 51.4733 43.3581 51.9427 42.8887 52.924C42.4407 53.9053 41.9714 55.2387 41.4807 56.924C41.3314 57.436 41.1607 58.0867 40.9687 58.876C40.7981 59.6653 40.6274 60.4867 40.4567 61.34C40.2861 62.172 40.1581 62.9293 40.0727 63.612C40.7554 62.2253 41.3741 60.9773 41.9287 59.868C42.4834 58.7587 42.9101 57.724 43.2087 56.764C43.4861 55.996 43.6887 55.1747 43.8167 54.3C43.9661 53.4253 44.0407 52.732 44.0407 52.22C44.0407 51.8147 43.9981 51.58 43.9127 51.516ZM58.9885 66.62C58.8178 67.004 58.4445 67.4627 57.8685 67.996C57.3138 68.5293 56.6525 68.9987 55.8845 69.404C55.1378 69.788 54.3805 69.98 53.6125 69.98C52.5032 69.98 51.7565 69.66 51.3725 69.02C50.9885 68.3587 50.7965 67.4733 50.7965 66.364C50.7965 65.6173 50.8605 64.7 50.9885 63.612C51.1165 62.524 51.3085 61.3507 51.5645 60.092C51.8205 58.8333 52.1405 57.564 52.5245 56.284C52.9085 55.068 53.3245 53.884 53.7725 52.732C54.2205 51.58 54.8925 50.5773 55.7885 49.724C55.9378 49.4893 56.1298 49.372 56.3645 49.372C56.5565 49.372 56.7272 49.4573 56.8765 49.628C57.0258 49.7773 57.0898 49.9587 57.0685 50.172C57.0685 50.172 57.0578 50.4387 57.0365 50.972C57.0365 51.5053 57.0045 52.156 56.9405 52.924C56.8765 53.6707 56.7805 54.3853 56.6525 55.068C56.4605 56.22 56.1085 57.436 55.5965 58.716C55.1058 59.996 54.5832 61.1587 54.0285 62.204C53.5805 63.0787 53.2178 63.708 52.9405 64.092C52.6845 64.476 52.4818 64.7533 52.3325 64.924C52.2045 65.0947 52.1085 65.3187 52.0445 65.596C52.0232 65.7453 52.0018 65.916 51.9805 66.108C51.9805 66.2787 51.9805 66.46 51.9805 66.652C51.9805 67.036 52.0018 67.4093 52.0445 67.772C52.1085 68.1133 52.1832 68.3373 52.2685 68.444C52.5032 68.6787 52.7592 68.8493 53.0365 68.956C53.3138 69.0627 53.5912 69.116 53.8685 69.116C54.1032 69.116 54.3165 69.084 54.5085 69.02C55.2338 68.8067 55.9698 68.4547 56.7165 67.964C57.4845 67.4733 58.0285 66.9933 58.3485 66.524C58.4978 66.3107 58.6152 66.172 58.7005 66.108C58.8072 66.0227 58.8925 65.98 58.9565 65.98C59.0632 65.98 59.1165 66.0547 59.1165 66.204C59.1165 66.2467 59.1058 66.3107 59.0845 66.396C59.0632 66.46 59.0312 66.5347 58.9885 66.62ZM56.0765 51.516C55.8632 51.4733 55.5218 51.9427 55.0525 52.924C54.6045 53.9053 54.1352 55.2387 53.6445 56.924C53.4952 57.436 53.3245 58.0867 53.1325 58.876C52.9618 59.6653 52.7912 60.4867 52.6205 61.34C52.4498 62.172 52.3218 62.9293 52.2365 63.612C52.9192 62.2253 53.5378 60.9773 54.0925 59.868C54.6472 58.7587 55.0738 57.724 55.3725 56.764C55.6498 55.996 55.8525 55.1747 55.9805 54.3C56.1298 53.4253 56.2045 52.732 56.2045 52.22C56.2045 51.8147 56.1618 51.58 56.0765 51.516ZM69.7762 65.596C69.4989 66.0653 69.1469 66.5773 68.7202 67.132C68.2936 67.6653 67.8456 68.124 67.3762 68.508C66.9282 68.892 66.5016 69.084 66.0962 69.084C65.4349 69.084 64.9122 69.052 64.5282 68.988C64.1656 68.9027 63.8669 68.7853 63.6322 68.636C63.2269 68.3587 62.8962 67.996 62.6402 67.548C62.3842 67.1 62.2349 66.6413 62.1922 66.172C62.1709 66.044 62.1602 65.916 62.1602 65.788C62.1602 65.66 62.1602 65.5427 62.1602 65.436C62.1602 64.1773 62.4056 63.068 62.8962 62.108C63.3869 61.148 64.0802 60.572 64.9762 60.38C65.2536 60.3373 65.4669 60.4547 65.6162 60.732C65.7656 60.988 65.8402 61.34 65.8402 61.788C65.8402 62.4707 65.6589 63.2067 65.2962 63.996C65.1469 64.316 64.9869 64.6253 64.8162 64.924C64.6669 65.2013 64.5389 65.4253 64.4322 65.596C64.1549 66.0013 63.9416 66.2787 63.7922 66.428C63.6642 66.556 63.6002 66.684 63.6002 66.812C63.6002 67.1533 63.8136 67.484 64.2402 67.804C64.6669 68.124 65.3282 68.284 66.2242 68.284C66.5656 68.284 66.9176 68.1347 67.2802 67.836C67.6429 67.5373 67.9949 67.164 68.3362 66.716C68.6989 66.268 69.0189 65.82 69.2962 65.372C69.4242 65.1587 69.5416 65.052 69.6482 65.052C69.7762 65.052 69.8402 65.148 69.8402 65.34C69.8402 65.4253 69.8189 65.5107 69.7762 65.596ZM64.9762 61.564C64.8909 61.436 64.7096 61.468 64.4322 61.66C64.1762 61.8307 63.9416 62.236 63.7282 62.876C63.5789 63.3453 63.5042 63.8893 63.5042 64.508C63.5042 64.6787 63.5042 64.8493 63.5042 65.02C63.5256 65.1907 63.5469 65.3613 63.5682 65.532C63.9309 64.9133 64.1869 64.4547 64.3362 64.156C64.5069 63.836 64.6349 63.5053 64.7202 63.164C64.7629 62.9933 64.8269 62.78 64.9122 62.524C65.0189 62.268 65.0722 62.044 65.0722 61.852C65.0722 61.724 65.0402 61.628 64.9762 61.564ZM78.7567 67.388C78.2234 68.0707 77.7221 68.5507 77.2527 68.828C76.7834 69.1053 76.3354 69.276 75.9087 69.34C75.4821 69.3827 75.0341 69.404 74.5647 69.404C73.8394 69.404 73.2741 69.1693 72.8687 68.7C72.4847 68.2093 72.2714 67.644 72.2287 67.004C72.2074 66.5773 72.2287 66.0653 72.2927 65.468C72.3781 64.8707 72.5914 64.22 72.9327 63.516C73.2527 62.8547 73.5941 62.3747 73.9567 62.076C74.3194 61.756 74.6714 61.532 75.0127 61.404C75.3541 61.276 75.6314 61.1693 75.8447 61.084C76.0154 61.02 76.1967 60.988 76.3887 60.988C76.8154 60.988 77.1567 61.0947 77.4127 61.308C77.5194 61.3933 77.5834 61.5107 77.6047 61.66C77.6474 61.788 77.6687 61.9267 77.6687 62.076C77.6687 62.1613 77.6581 62.2573 77.6367 62.364C77.6367 62.4493 77.6261 62.5347 77.6047 62.62C77.5621 62.8973 77.4341 63.26 77.2207 63.708C77.0287 64.1347 76.8474 64.5507 76.6767 64.956C76.5487 65.084 76.4101 65.148 76.2607 65.148C76.0901 65.148 76.0474 65.052 76.1327 64.86C76.2394 64.4333 76.3781 64.0813 76.5487 63.804C76.7407 63.5053 76.8367 63.2493 76.8367 63.036C76.8581 62.972 76.8687 62.908 76.8687 62.844C76.8687 62.78 76.8687 62.7267 76.8687 62.684C76.8687 62.3853 76.7407 62.1827 76.4847 62.076C76.3567 62.0333 76.2607 62.012 76.1967 62.012C75.9194 62.012 75.5994 62.14 75.2367 62.396C74.8741 62.652 74.5754 63.004 74.3407 63.452C74.0634 63.9427 73.8607 64.4973 73.7327 65.116C73.6261 65.7347 73.5727 66.2573 73.5727 66.684C73.5727 67.196 73.7541 67.6227 74.1167 67.964C74.5007 68.284 74.9594 68.4227 75.4927 68.38C76.0901 68.316 76.6661 68.156 77.2207 67.9C77.7967 67.644 78.2874 67.2493 78.6927 66.716C78.7567 66.6733 78.8207 66.652 78.8847 66.652C78.9487 66.652 78.9807 66.6947 78.9807 66.78C78.9807 66.8653 78.9487 66.9827 78.8847 67.132C78.8421 67.26 78.7994 67.3453 78.7567 67.388ZM91.319 56.86C91.319 56.86 91.319 56.9347 91.319 57.084C91.3403 57.2333 91.2977 57.4147 91.191 57.628C91.0843 57.8413 90.8497 58.0547 90.487 58.268C90.359 58.3533 90.1243 58.4173 89.783 58.46C89.4417 58.5027 89.0577 58.5347 88.631 58.556C88.3963 59.1747 88.1403 59.804 87.863 60.444C87.5857 61.0627 87.2977 61.6493 86.999 62.204C86.551 63.0573 86.167 63.6867 85.847 64.092C85.5483 64.4973 85.3137 64.8067 85.143 65.02C84.9723 65.212 84.855 65.4467 84.791 65.724C84.7697 65.852 84.7483 65.9693 84.727 66.076C84.727 66.1827 84.727 66.2893 84.727 66.396C84.727 67.1853 84.951 67.7613 85.399 68.124C85.8683 68.4867 86.3163 68.668 86.743 68.668C87.2337 68.668 87.7243 68.4973 88.215 68.156C88.7057 67.7933 89.111 67.4627 89.431 67.164C89.687 66.9507 89.879 66.844 90.007 66.844C90.0923 66.844 90.135 66.8867 90.135 66.972C90.135 67.1213 90.0177 67.356 89.783 67.676C89.655 67.8467 89.4417 68.0813 89.143 68.38C88.8443 68.6787 88.471 68.956 88.023 69.212C87.575 69.4467 87.0737 69.564 86.519 69.564C85.4097 69.564 84.663 69.308 84.279 68.796C83.9163 68.284 83.735 67.4307 83.735 66.236C83.735 65.2973 83.831 64.1453 84.023 62.78C84.215 61.3933 84.5137 59.932 84.919 58.396C84.8123 58.396 84.7057 58.396 84.599 58.396C84.4923 58.3747 84.3963 58.364 84.311 58.364C84.0337 58.364 83.8203 58.4067 83.671 58.492C83.543 58.556 83.4363 58.588 83.351 58.588C83.1377 58.588 83.031 58.428 83.031 58.108C83.031 57.7453 83.127 57.468 83.319 57.276C83.4683 57.1267 83.7243 57.052 84.087 57.052C84.3643 57.052 84.7377 57.1053 85.207 57.212C85.2497 57.084 85.2923 56.9667 85.335 56.86C85.3777 56.7533 85.4097 56.6467 85.431 56.54C85.4737 56.3267 85.5163 56.156 85.559 56.028C85.6017 55.9 85.655 55.74 85.719 55.548C86.0817 54.46 86.4763 53.4147 86.903 52.412C87.3297 51.4093 87.9483 50.5133 88.759 49.724C88.9083 49.4893 89.111 49.372 89.367 49.372C89.559 49.372 89.7297 49.4573 89.879 49.628C90.0283 49.7773 90.0923 49.9587 90.071 50.172C90.071 50.172 90.0603 50.4387 90.039 50.972C90.0177 51.5053 89.975 52.156 89.911 52.924C89.847 53.6707 89.751 54.3853 89.623 55.068C89.559 55.4733 89.463 55.9107 89.335 56.38C89.2283 56.828 89.0897 57.2867 88.919 57.756C89.047 57.7773 89.1643 57.7987 89.271 57.82C89.399 57.82 89.5163 57.82 89.623 57.82C89.943 57.82 90.1883 57.7773 90.359 57.692C90.551 57.5853 90.6577 57.4787 90.679 57.372C90.7217 57.2653 90.743 57.212 90.743 57.212C90.743 56.7853 90.8497 56.572 91.063 56.572C91.1697 56.572 91.255 56.668 91.319 56.86ZM89.047 51.516C88.919 51.4947 88.7163 51.74 88.439 52.252C88.1617 52.764 87.863 53.436 87.543 54.268C87.223 55.1 86.9137 55.9853 86.615 56.924C86.5937 57.0093 86.5723 57.0947 86.551 57.18C86.5297 57.244 86.5083 57.3187 86.487 57.404C86.6363 57.4467 86.7857 57.4787 86.935 57.5C87.0843 57.5213 87.2443 57.5533 87.415 57.596C87.5003 57.6173 87.5963 57.628 87.703 57.628C87.8097 57.628 87.9057 57.6493 87.991 57.692C88.0763 57.4573 88.151 57.2547 88.215 57.084C88.279 56.892 88.343 56.7213 88.407 56.572C88.6417 55.7827 88.8337 54.972 88.983 54.14C89.1323 53.308 89.207 52.6573 89.207 52.188C89.207 51.804 89.1537 51.58 89.047 51.516ZM87.639 58.556H87.063C86.9137 58.556 86.7643 58.556 86.615 58.556C86.487 58.556 86.359 58.5453 86.231 58.524C86.039 59.3347 85.847 60.2093 85.655 61.148C85.4843 62.0653 85.3457 62.8867 85.239 63.612C85.495 63.3133 85.7617 62.8867 86.039 62.332C86.3163 61.7773 86.5937 61.1693 86.871 60.508C87.1483 59.8253 87.4043 59.1747 87.639 58.556ZM102.034 52.572C102.141 52.6573 102.205 52.8067 102.226 53.02C102.269 53.2333 102.29 53.4573 102.29 53.692C102.29 53.9693 102.258 54.2467 102.194 54.524C102.151 54.8013 102.077 54.9933 101.97 55.1C101.842 55.228 101.693 55.292 101.522 55.292C101.373 55.292 101.223 55.26 101.074 55.196C100.925 55.132 100.765 55.0573 100.594 54.972C100.295 54.844 100.146 54.5347 100.146 54.044C100.146 53.8093 100.199 53.564 100.306 53.308C100.413 53.052 100.583 52.8067 100.818 52.572C100.989 52.4013 101.191 52.316 101.426 52.316C101.661 52.316 101.863 52.4013 102.034 52.572ZM100.562 66.012C100.69 65.884 100.754 65.9053 100.754 66.076C100.754 66.1827 100.722 66.3213 100.658 66.492C100.615 66.6627 100.562 66.7907 100.498 66.876C100.285 67.1747 100.029 67.5053 99.73 67.868C99.4527 68.2307 99.122 68.54 98.738 68.796C98.354 69.0307 97.8953 69.148 97.362 69.148C96.5727 69.148 96.0287 68.9667 95.73 68.604C95.4313 68.2413 95.282 67.804 95.282 67.292C95.282 67.0573 95.3033 66.8227 95.346 66.588C95.3887 66.3533 95.442 66.1187 95.506 65.884C95.2927 66.268 94.962 66.716 94.514 67.228C94.066 67.7187 93.65 68.1133 93.266 68.412C93.1807 68.476 93.0953 68.508 93.01 68.508C92.882 68.508 92.818 68.4333 92.818 68.284C92.818 68.1133 92.882 67.964 93.01 67.836C93.906 66.8973 94.5887 66.14 95.058 65.564C95.5273 64.9667 95.89 64.4653 96.146 64.06C96.402 63.6547 96.6473 63.2813 96.882 62.94C97.074 62.3213 97.2447 61.724 97.394 61.148C97.5647 60.5507 97.8207 59.9427 98.162 59.324C98.2687 59.132 98.482 59.036 98.802 59.036C99.0153 59.036 99.2073 59.0893 99.378 59.196C99.5487 59.3027 99.634 59.484 99.634 59.74C99.634 59.868 99.602 60.0173 99.538 60.188C99.3033 60.8493 99.0473 61.4147 98.77 61.884C98.514 62.332 98.1727 62.908 97.746 63.612C97.298 64.3373 96.9353 65.0413 96.658 65.724C96.402 66.4067 96.274 66.9827 96.274 67.452C96.274 67.7507 96.338 67.996 96.466 68.188C96.6153 68.38 96.8287 68.476 97.106 68.476C97.7033 68.4973 98.162 68.4013 98.482 68.188C98.802 67.9533 99.0687 67.7293 99.282 67.516C99.5593 67.2173 99.794 66.94 99.986 66.684C100.199 66.428 100.391 66.204 100.562 66.012ZM111.172 63.484C111.172 63.932 111.076 64.5187 110.884 65.244C110.692 65.9693 110.436 66.652 110.116 67.292C109.818 67.9533 109.476 68.444 109.092 68.764C108.73 69.0627 108.378 69.276 108.036 69.404C107.695 69.5107 107.418 69.6173 107.204 69.724C107.119 69.7453 107.023 69.7667 106.916 69.788C106.831 69.8307 106.735 69.852 106.628 69.852C106.202 69.852 105.871 69.7347 105.636 69.5C105.551 69.4147 105.412 69.3293 105.22 69.244C105.05 69.1587 104.89 69.0093 104.74 68.796C104.591 68.5827 104.516 68.2307 104.516 67.74C104.516 67.228 104.58 66.7373 104.708 66.268C104.324 65.82 104.132 65.3293 104.132 64.796C104.132 64.476 104.207 64.1667 104.356 63.868C104.762 63.1 105.274 62.5027 105.892 62.076C106.511 61.6493 107.098 61.3507 107.652 61.18C108.228 61.0093 108.623 60.924 108.836 60.924C109.626 60.924 110.212 61.18 110.596 61.692C110.98 62.204 111.172 62.8013 111.172 63.484ZM109.86 63.644C109.86 63.1533 109.69 62.748 109.348 62.428C109.028 62.108 108.623 61.948 108.132 61.948C107.727 61.948 107.311 62.076 106.884 62.332C106.479 62.5667 106.127 62.8653 105.828 63.228C105.53 63.5907 105.338 63.9427 105.252 64.284C105.231 64.412 105.21 64.5293 105.188 64.636C105.188 64.7427 105.188 64.8493 105.188 64.956C105.423 64.444 105.668 64.0173 105.924 63.676C106.202 63.3347 106.404 63.1213 106.532 63.036C106.639 62.9507 106.778 62.908 106.948 62.908C107.183 62.908 107.3 62.972 107.3 63.1C107.3 63.1853 107.183 63.3453 106.948 63.58C106.735 63.7933 106.49 64.0813 106.212 64.444C105.935 64.7853 105.7 65.212 105.508 65.724C105.679 65.9373 105.903 66.0973 106.18 66.204C106.479 66.2893 106.767 66.332 107.044 66.332C107.343 66.332 107.62 66.2787 107.876 66.172C108.154 66.044 108.335 65.8733 108.42 65.66C108.442 65.596 108.452 65.5427 108.452 65.5C108.474 65.436 108.484 65.3827 108.484 65.34C108.484 65.1267 108.388 64.9987 108.196 64.956C108.026 64.892 107.855 64.8707 107.684 64.892H107.62C107.386 64.892 107.268 64.8387 107.268 64.732C107.268 64.668 107.29 64.604 107.332 64.54C107.396 64.476 107.45 64.4227 107.492 64.38C107.62 64.252 107.759 64.188 107.908 64.188C108.122 64.188 108.356 64.3267 108.612 64.604C108.847 64.924 108.964 65.2333 108.964 65.532C108.964 65.916 108.772 66.2147 108.388 66.428C108.026 66.6413 107.62 66.7907 107.172 66.876C106.724 66.9613 106.383 67.004 106.148 67.004C105.807 67.004 105.53 66.9293 105.316 66.78C105.295 66.8227 105.284 66.9187 105.284 67.068C105.284 67.6653 105.444 68.0707 105.764 68.284C106.084 68.476 106.351 68.6253 106.564 68.732C106.692 68.7747 106.799 68.796 106.884 68.796C107.183 68.796 107.492 68.668 107.812 68.412C108.154 68.156 108.452 67.804 108.708 67.356C108.9 67.0147 109.082 66.6093 109.252 66.14C109.423 65.6707 109.562 65.212 109.668 64.764C109.796 64.2947 109.86 63.9213 109.86 63.644ZM122.378 63.676C122.378 64.1667 122.336 64.5293 122.25 64.764C122.186 64.9987 122.09 65.1907 121.962 65.34C121.856 65.4893 121.738 65.66 121.61 65.852C121.482 66.044 121.376 66.332 121.29 66.716C121.226 67.0787 121.194 67.612 121.194 68.316C121.194 68.5933 121.301 68.8173 121.514 68.988C121.728 69.1587 121.973 69.244 122.25 69.244C122.378 69.244 122.442 69.2867 122.442 69.372C122.442 69.4787 122.357 69.6067 122.186 69.756C122.037 69.9267 121.898 70.012 121.77 70.012C121.301 70.012 120.96 69.8307 120.746 69.468C120.533 69.084 120.426 68.6787 120.426 68.252C120.426 67.548 120.448 66.9933 120.49 66.588C120.533 66.1613 120.576 65.7667 120.618 65.404C120.661 65.02 120.672 64.5507 120.65 63.996C120.629 63.612 120.576 63.3133 120.49 63.1C120.405 62.8653 120.181 62.748 119.818 62.748C119.626 62.748 119.488 62.78 119.402 62.844C119.338 62.908 119.253 63.0147 119.146 63.164C118.912 63.5053 118.709 63.9853 118.538 64.604C118.389 65.2013 118.261 65.8413 118.154 66.524C118.069 67.1853 117.984 67.7827 117.898 68.316C117.834 68.828 117.77 69.1693 117.706 69.34C117.642 69.4893 117.557 69.596 117.45 69.66C117.365 69.724 117.269 69.756 117.162 69.756C117.077 69.756 116.992 69.7347 116.906 69.692C116.842 69.6707 116.789 69.6493 116.746 69.628C116.64 69.564 116.586 69.4573 116.586 69.308C116.586 69.1587 116.618 68.988 116.682 68.796C116.768 68.5827 116.832 68.3907 116.874 68.22C116.917 68.0493 116.981 67.7507 117.066 67.324C117.173 66.876 117.28 66.4173 117.386 65.948C117.493 65.4573 117.578 65.0413 117.642 64.7C117.728 64.3373 117.77 64.156 117.77 64.156C117.664 64.156 117.557 64.1667 117.45 64.188C117.344 64.188 117.237 64.188 117.13 64.188C116.81 64.188 116.65 64.06 116.65 63.804C116.65 63.6333 116.714 63.3773 116.842 63.036C116.97 62.6947 117.205 62.2467 117.546 61.692C117.653 61.5213 117.866 61.308 118.186 61.052C118.506 60.796 118.773 60.6893 118.986 60.732C119.072 60.6893 119.146 60.668 119.21 60.668C119.274 60.668 119.328 60.668 119.37 60.668C119.605 60.668 119.733 60.7533 119.754 60.924C119.797 61.0733 119.808 61.2333 119.786 61.404C119.765 61.5533 119.776 61.6173 119.818 61.596C120.117 61.468 120.416 61.404 120.714 61.404C121.162 61.404 121.546 61.5853 121.866 61.948C122.208 62.2893 122.378 62.8653 122.378 63.676ZM136.224 67.324C135.946 67.6013 135.701 67.8787 135.488 68.156C135.274 68.4333 134.805 68.7533 134.08 69.116C133.994 69.244 133.802 69.436 133.504 69.692C133.226 69.948 132.672 70.0973 131.84 70.14C131.285 70.1613 130.837 70.0227 130.496 69.724C130.176 69.4467 129.93 69.1053 129.76 68.7C129.589 68.2947 129.44 67.9213 129.312 67.58C129.29 67.6013 129.194 67.6867 129.024 67.836C128.853 67.9853 128.682 68.1347 128.512 68.284C128.32 68.4333 128.202 68.5293 128.16 68.572C128.138 68.5933 128.096 68.604 128.032 68.604C127.925 68.604 127.84 68.5507 127.776 68.444C127.69 68.316 127.69 68.2093 127.776 68.124C128.181 67.7187 128.49 67.4093 128.704 67.196C128.917 66.9613 129.109 66.7373 129.28 66.524C129.45 66.3107 129.653 66.044 129.888 65.724C130.25 65.1693 130.634 64.6787 131.04 64.252C131.466 63.804 131.733 63.4733 131.84 63.26C131.861 63.2387 131.872 63.196 131.872 63.132C131.872 63.068 131.84 63.0147 131.776 62.972C131.733 62.9293 131.701 62.876 131.68 62.812C131.594 62.4707 131.552 62.1507 131.552 61.852C131.552 61.3827 131.733 60.828 132.096 60.188C132.245 60.0813 132.448 59.996 132.704 59.932C132.96 59.8467 133.162 59.836 133.312 59.9C133.482 59.9853 133.589 60.0813 133.632 60.188C133.696 60.2947 133.749 60.4333 133.792 60.604C133.792 60.6253 133.792 60.6467 133.792 60.668C133.813 60.6893 133.824 60.7213 133.824 60.764C133.824 60.892 133.802 61.0307 133.76 61.18C133.717 61.3293 133.664 61.4893 133.6 61.66C133.6 61.7453 133.493 61.9053 133.28 62.14C133.088 62.3747 133.024 62.524 133.088 62.588C133.216 62.8653 133.429 63.228 133.728 63.676C134.09 64.188 134.336 64.6573 134.464 65.084C134.613 65.5107 134.688 65.8947 134.688 66.236C134.688 66.6413 134.624 66.9933 134.496 67.292C134.389 67.5907 134.304 67.8467 134.24 68.06C134.432 68.0813 134.656 67.9853 134.912 67.772C135.168 67.5373 135.413 67.2813 135.648 67.004C135.904 66.7053 136.096 66.492 136.224 66.364C136.352 66.236 136.448 66.172 136.512 66.172C136.618 66.172 136.618 66.332 136.512 66.652C136.426 66.972 136.33 67.196 136.224 67.324ZM133.12 61.18C133.12 61.0947 133.109 60.9987 133.088 60.892C133.066 60.7853 133.002 60.7213 132.896 60.7H132.864C132.757 60.7 132.672 60.7533 132.608 60.86C132.544 60.9453 132.49 61.0307 132.448 61.116C132.384 61.2867 132.32 61.436 132.256 61.564C132.213 61.6707 132.234 61.7773 132.32 61.884C132.405 61.9267 132.554 61.8413 132.768 61.628C133.002 61.3933 133.12 61.244 133.12 61.18ZM133.184 66.3C133.184 65.98 133.12 65.6387 132.992 65.276C132.885 64.892 132.757 64.5507 132.608 64.252C132.48 63.9533 132.384 63.7613 132.32 63.676C132.32 63.676 132.192 63.836 131.936 64.156C131.68 64.4547 131.402 64.7853 131.104 65.148C130.912 65.3613 130.72 65.6387 130.528 65.98C130.336 66.3213 130.218 66.62 130.176 66.876C130.176 66.876 130.272 67.004 130.464 67.26C130.656 67.4947 130.89 67.7187 131.168 67.932C131.466 68.1453 131.754 68.22 132.032 68.156C132.458 68.0493 132.757 67.804 132.928 67.42C133.098 67.0147 133.184 66.6413 133.184 66.3ZM132.096 68.796H131.808C131.722 68.796 131.626 68.796 131.52 68.796C131.413 68.7747 131.306 68.7533 131.2 68.732C131.093 68.6893 130.933 68.604 130.72 68.476C130.506 68.348 130.4 68.284 130.4 68.284C130.4 68.284 130.389 68.3053 130.368 68.348C130.368 68.3907 130.368 68.444 130.368 68.508C130.368 68.5933 130.378 68.6893 130.4 68.796C130.442 68.9027 130.517 69.0093 130.624 69.116C130.794 69.244 130.944 69.3507 131.072 69.436C131.2 69.5 131.37 69.5 131.584 69.436C131.733 69.3933 131.85 69.276 131.936 69.084C132.042 68.892 132.096 68.796 132.096 68.796Z" fill="#EB0A2F"/>
</svg>
