<svg width="71" height="71" viewBox="0 0 71 71" fill="none" xmlns="http://www.w3.org/2000/svg">
<path d="M45.8542 41.4167H43.5171L42.6887 40.6179C45.6881 37.139 47.3366 32.6976 47.3333 28.1042C47.3333 24.301 46.2056 20.5832 44.0926 17.421C41.9797 14.2588 38.9765 11.7942 35.4628 10.3387C31.9492 8.88333 28.0828 8.50253 24.3527 9.24449C20.6226 9.98645 17.1963 11.8179 14.5071 14.5071C11.8178 17.1963 9.98644 20.6227 9.24448 24.3527C8.50251 28.0828 8.88332 31.9492 10.3387 35.4629C11.7941 38.9765 14.2588 41.9797 17.421 44.0926C20.5832 46.2056 24.301 47.3333 28.1042 47.3333C32.8671 47.3333 37.2454 45.5879 40.6179 42.6888L41.4167 43.5171V45.8542L56.2083 60.6163L60.6162 56.2083L45.8542 41.4167ZM28.1042 41.4167C20.7379 41.4167 14.7917 35.4704 14.7917 28.1042C14.7917 20.7379 20.7379 14.7917 28.1042 14.7917C35.4704 14.7917 41.4167 20.7379 41.4167 28.1042C41.4167 35.4704 35.4704 41.4167 28.1042 41.4167Z" fill="white"/>
</svg>
