<svg width="110" height="110" viewBox="0 0 110 110" fill="none" xmlns="http://www.w3.org/2000/svg">
<path d="M55 18.3333C59.8623 18.3333 64.5255 20.2648 67.9636 23.703C71.4018 27.1411 73.3333 31.8043 73.3333 36.6666C73.3333 41.5289 71.4018 46.192 67.9636 49.6302C64.5255 53.0684 59.8623 54.9999 55 54.9999C50.1377 54.9999 45.4745 53.0684 42.0364 49.6302C38.5982 46.192 36.6667 41.5289 36.6667 36.6666C36.6667 31.8043 38.5982 27.1411 42.0364 23.703C45.4745 20.2648 50.1377 18.3333 55 18.3333ZM55 64.1666C75.2583 64.1666 91.6667 72.3707 91.6667 82.4999V91.6666H18.3333V82.4999C18.3333 72.3707 34.7417 64.1666 55 64.1666Z" fill="white"/>
</svg>
